<svg xmlns="http://www.w3.org/2000/svg" width="291.366" height="41.315"><defs><style>.a{fill:#fff}</style><filter id="a" x="269.576" y="28.35" width="21.085" height="12.8" filterUnits="userSpaceOnUse"><feOffset dx="1" dy="2"/><feGaussianBlur result="b"/><feFlood flood-color="#ae5700"/><feComposite operator="in" in2="b"/><feComposite in="SourceGraphic"/></filter><filter id="c" x="222.942" y="4.755" width="45.056" height="36.56" filterUnits="userSpaceOnUse"><feOffset dx="2" dy="2"/><feGaussianBlur result="d"/><feFlood flood-color="#ae5700"/><feComposite operator="in" in2="d"/><feComposite in="SourceGraphic"/></filter><filter id="e" x="270.193" y="3.185" width="21.173" height="23.036" filterUnits="userSpaceOnUse"><feOffset dx="1" dy="2"/><feGaussianBlur result="f"/><feFlood flood-color="#ae5700"/><feComposite operator="in" in2="f"/><feComposite in="SourceGraphic"/></filter></defs><path class="a" d="M9.974 0c1.176 0 1.932.214 1.861.613l-.192 1.1c-.028.157-.132.428-.613.428h-.114c-.227 0-.709-.157-1.12-.157a.628.628 0 0 0-.709.571c-.077.442.01.67.482 1.127 1.442 1.4 1.607 2.4 1.4 3.552a3.534 3.534 0 0 1-.7 1.812 3.386 3.386 0 0 1-1.7 1.07 6.285 6.285 0 0 1-1.387.157c-1.048 0-2.033-.2-1.934-.771l.193-1.1c.03-.171.2-.342.584-.342a10.634 10.634 0 0 0 1.45.214 1.148 1.148 0 0 0 1.067-.756c.058-.328.086-.571-.628-1.427-1.091-1.3-1.609-1.9-1.4-3.067C7.001.214 8.837 0 9.974 0zm8.023 7.304c-.31 1.769-.718 2.967-3.564 2.967-2.989 0-2.989-1.213-2.665-3.067.79-4.508 1.063-5.992 1.063-5.992.1-.571.2-1.141 1.049-1.141h.708c.85 0 .75.571.65 1.141l-1.1 6.277c-.074.428-.137.785.641.785.637 0 .7-.357.775-.785l1.1-6.291c.1-.556.2-1.127 1.047-1.127h.708c.85 0 .75.571.653 1.127zm3.378-.343l-.368 2.1c-.1.571-.2 1.141-1.049 1.141h-.708c-.85 0-.75-.571-.65-1.141l1.374-7.846c.1-.571.2-1.141 1.049-1.141h3.074c1.53 0 2.174 1.255 1.824 3.253a7.652 7.652 0 0 1-.844 2.311 3.287 3.287 0 0 1-2.787 1.113 3.45 3.45 0 0 1-.519-.028c-.344 0-.378.11-.396.238zm.733-4.265c-.033.185-.061.428-.114.728s-.109.542-.139.713c-.083.471-.013.557.554.557.751 0 .889-.628 1-1.27s.108-1.427-.53-1.427c-.568 0-.686.185-.775.699zm6.236 4.893c-.027.314.229.471.512.471.808 0 1.082-.028 1.379-.028.594 0 .748.171.673.6l-.174 1c-.075.428-.241.571-.667.571h-3.739c-.85 0-.7-.856-.65-1.141l1.374-7.846c.1-.571.2-1.141 1.049-1.141h3.654c.354 0 .641.143.591.428l-.212 1.213c-.061.342-.346.357-.7.357-.552 0-.987-.028-1.341-.028-.779 0-.828.285-.909.742-.163.927-.205 1.17.5 1.17.879 0 1.025-.029 1.351-.029.5 0 .437.5.409.656l-.16.913c-.075.428-.377.457-.731.457-.723 0-1.17-.029-1.468-.029-.453 0-.488.2-.571.67zM36.936.071c2.11 0 2.439 1.526 2.144 3.21a3.051 3.051 0 0 1-1.237 2.368c-.457.342-.677.143-.771.685-.1.585-.043 1.3.424 1.3a2.042 2.042 0 0 0 .466-.071c.453 0 .457.385.342 1.041-.055.314-.136.7-.211 1.127-.05.285-.208.542-.945.542-1.3 0-1.8-.97-1.883-2.026-.107-1.327-.492-1.555-.578-1.555-.114 0-.153.228-.174.342l-.354 2.026c-.1.571-.2 1.141-1.049 1.141h-.992c-.566 0-.467-.571-.367-1.141l1.374-7.846c.1-.571.2-1.141 1.049-1.141zM35.273 2.61c-.033.185-.075.514-.128.813s-.109.542-.139.713c-.082.471-.012.557.555.557.637 0 .889-.628 1-1.27s.108-1.427-.529-1.427c-.563.001-.666.101-.756.614z"/><path d="M13.634 23.735a.135.135 0 0 0 .1.163c2.192.782 2.583 3.356 2.183 5.637a9.107 9.107 0 0 1-1.5 3.584c-2.1 2.932-3.469 3-5.571 3H1.634c-1.941 0-1.712-1.3-1.485-2.606l3.138-17.92c.228-1.3.456-2.607 2.4-2.607h6.956c4.173 0 5.073 2.8 4.549 5.8a6.467 6.467 0 0 1-3.394 4.789.208.208 0 0 0-.164.16zm-7.16 5.05c-.342 1.955-.513 2.932 1.266 2.932 1.618 0 2.036-1.466 2.293-2.932s.5-2.867-1.278-2.867-1.939.912-2.281 2.867zm1.609-9.188c-.285 1.629-.382 2.183 1.235 2.183 1.294 0 1.8-1.043 2-2.183s.064-2.216-1.23-2.216c-1.617 0-1.72.587-2.005 2.218zM27.24 31.391c1.359 0 1.4.717 1.224 1.694l-.074.424c-.228 1.3-.456 2.606-2.4 2.606h-7.311c-1.941 0-1.713-1.3-1.485-2.606l3.137-17.92c.228-1.3.456-2.607 2.4-2.607h1.618c1.941 0 1.712 1.3 1.484 2.607l-2.458 14.042c-.137.782-.314 1.792.683 1.824 1.715.001 2.502-.064 3.182-.064zm18.609 3.096c-.262 1.5-1.288 1.629-3.132 1.629h-1.715c-2.005 0-.147-4.887-1.441-4.887h-2.588c-1.294 0-1.406 4.887-3.346 4.887h-1.521c-1.682 0-2.663-.13-2.4-1.629.342-1.955 1.421-3.682 6.608-18.9.544-1.629 1.362-2.607 2.656-2.607h4.982c1.294 0 1.77.978 1.808 2.607-.138 13.361.431 16.945.089 18.9zm-7.9-8.667c-.092.521.135.521 1.17.521 1 0 1.262 0 1.347-.489a3.365 3.365 0 0 0 .059-.521c.171-3.193.732-7.135.02-7.135-.679 0-1.59 3.91-2.479 7.135a3.053 3.053 0 0 0-.113.489zm22.757-13c.809 0 1.161.391 1.047 1.043l-.5 2.867c-.057.326-.142.815-1.372.815-.647 0-.668-.065-1.024-.065-3.073 0-4.06 5.637-4.265 6.809-.194 1.108-1.222 7.168 1.689 7.168.42 0 .432-.065 1.176-.065 1.229 0 1.024 1.173.966 1.5l-.382 2.183a1.315 1.315 0 0 1-1.44 1.206c-4.594 0-9.561-2.118-7.821-12.055 1.624-9.288 7.332-11.406 11.926-11.406zm14.24 22.318c-.1.586-.689.977-1.854.977h-1.683c-2.07 0-2.12-.456-2.461-2.574-.708-4.268-.744-7.2-1.683-7.2-.194 0-.31.293-.384.717s-.112 1.01-.209 1.564l-.855 4.887c-.229 1.3-.457 2.606-2.4 2.606h-1.613c-1.94 0-1.712-1.3-1.484-2.606l3.138-17.92c.229-1.3.457-2.607 2.4-2.607h1.617c1.941 0 1.713 1.3 1.485 2.607-1.009 5.767-1.009 5.767-.848 5.767.971 0 2.55-3.845 3.01-4.627 1.519-2.574 1.821-3.747 3.471-3.747h1.876c1.1 0 2.006 0 1.846.912a5.033 5.033 0 0 1-.852 1.727c-1.412 2.15-5.16 7.3-5.195 7.494a3.09 3.09 0 0 0 .213.814c.193.718 2.659 9.547 2.465 11.209zm16.883-14.576c-.264 1.506-.352 2.008 1.019 2.008 1.309 0 1.631-.062 2.161-.062 1.776 0 1.789.282 1.542 1.694l-.049.282c-.4 2.259-.451 2.573-2.569 2.573-.623 0-1.7-.063-2.17-.063-1.028 0-1.1.22-1.378 1.82l-.835 4.77c-.219 1.255-.439 2.51-2.309 2.51h-1.557c-1.869 0-1.65-1.255-1.43-2.51l3.021-17.257c.165-.942.44-2.51 2.309-2.51h7.726c.779 0 1.409.314 1.3.941l-.467 2.667c-.11.628-.387.784-1.509.784-.778 0-.985-.063-2.45-.063-1.932 0-2.031.565-2.355 2.416zm16.57-6.746c4.642 0 5.363 3.357 4.715 7.06-.4 2.259-.679 3.7-2.719 5.209-1 .753-1.489.314-1.7 1.506-.225 1.287-.095 2.855.933 2.855a4.511 4.511 0 0 0 1.024-.157c1 0 1 .847.752 2.29-.121.69-.3 1.538-.465 2.479-.109.628-.458 1.192-2.078 1.192-2.866 0-3.957-2.133-4.142-4.456-.237-2.918-1.084-3.42-1.271-3.42-.249 0-.338.5-.381.753l-.78 4.456c-.219 1.255-.439 2.51-2.308 2.51h-2.181c-1.246 0-1.027-1.255-.807-2.51l3.021-17.257c.22-1.255.439-2.51 2.309-2.51zm-3.657 5.585c-.071.408-.167 1.129-.282 1.789-.11.627-.24 1.192-.306 1.569-.182 1.036-.028 1.224 1.219 1.224 1.4 0 1.955-1.381 2.2-2.792s.238-3.138-1.164-3.138c-1.244-.001-1.468.219-1.666 1.348zm13.595 14.185c-.22 1.255-.439 2.51-2.309 2.51h-1.558c-1.869 0-1.649-1.255-1.429-2.51l3.021-17.257c.219-1.255.44-2.51 2.309-2.51h1.558c1.869 0 1.65 1.255 1.43 2.51zm12.059-19.77c6.854 0 7.019 4.393 5.838 11.139-1.126 6.432-2.573 11.139-9.739 11.139h-4.674c-1.869 0-1.65-1.255-1.43-2.51l3.022-17.257c.22-1.255.439-2.51 2.309-2.51zm-2.189 5.209c-.621 3.545-1.266 7.405-1.914 11.107-.143.816-.212 1.569.348 1.569 2.337 0 2.823-1.883 3.7-6.9.769-4.393 1.025-6.746-1.312-6.746-.559-.003-.708.311-.822.97zm23.299 15.5c-.252 1.443-1.24 1.569-3.016 1.569h-1.651c-1.931 0-.142-4.707-1.388-4.707h-2.492c-1.246 0-1.354 4.707-3.223 4.707h-1.464c-1.62 0-2.564-.125-2.311-1.569.33-1.883 1.368-3.546 6.364-18.2.524-1.569 1.312-2.51 2.558-2.51h4.8c1.247 0 1.7.941 1.741 2.51-.136 12.866.412 16.317.082 18.2zm-7.6-8.346c-.088.5.13.5 1.127.5.966 0 1.215 0 1.3-.471a3.338 3.338 0 0 0 .057-.5c.165-3.075.7-6.872.02-6.872-.655 0-1.531 3.765-2.387 6.872a2.933 2.933 0 0 0-.121.471zm12.996 9.915c-1.869 0-1.649-1.255-1.429-2.51l.829-4.738c.3-1.694-.637-5.616-.967-6.934l-.055-.22c-.376-1.412-1.379-6.181-1.225-7.06a.941.941 0 0 1 1.046-.816h3.552c1 0 1.072 1.349 1.118 2.51.042 1 .455 4.518.468 4.8-.007.22.126.345.251.345a.386.386 0 0 0 .367-.314c.081-.282 1.636-3.828 2.061-4.832.483-1.161 1.094-2.51 2.215-2.51h2.772c.935 0 1.277 0 1.135.816a52.645 52.645 0 0 1-3.666 7.06c-.39.628-1.173 2.071-2.113 3.7a12.156 12.156 0 0 0-2.026 5.522l-.489 2.793c-.214 1.224-.418 2.385-2.287 2.385z"/><g transform="translate(0 .002)" filter="url(#a)"><path class="a" d="M269.595 33.755c0 .42-.015.825-.015 1.225 0 2.4.225 4.175 3.39 4.175 2.9 0 3.27-1.725 3.27-4.095 0-.8-.045-1.68-.045-2.58 0-2.385-.21-4.125-3.225-4.125-3.165 0-3.39 1.77-3.39 4.185 0 .39.015.795.015 1.215zm3.3-3.3c.75 0 .75.45.75.825v4.725c0 .45 0 1.05-.75 1.05s-.75-.6-.75-1.05V31.28c0-.375 0-.825.75-.825zm8.265.045c.705 0 .81.03 1.185.03.54 0 .66-.075.66-.375V28.88c0-.3-.33-.45-.7-.45h-3.725c-.9 0-.9.75-.9 1.2v8.25c0 .6 0 1.2.9 1.2h.75c.9 0 .9-.6.9-1.2V35.6c0-.765.015-.87.51-.87.225 0 .75.03 1.05.03 1.02 0 1.02-.15 1.02-1.23v-.135c0-.675-.03-.81-.885-.81-.255 0-.405.03-1.035.03-.66 0-.66-.24-.66-.96 0-.885 0-1.155.93-1.155zm6.66 0c.7 0 .81.03 1.185.03.54 0 .66-.075.66-.375V28.88c0-.3-.33-.45-.7-.45h-3.725c-.9 0-.9.75-.9 1.2v8.25c0 .6 0 1.2.9 1.2h.75c.9 0 .9-.6.9-1.2V35.6c0-.765.015-.87.51-.87.225 0 .75.03 1.05.03 1.02 0 1.02-.15 1.02-1.23v-.135c0-.675-.03-.81-.885-.81-.255 0-.405.03-1.035.03-.66 0-.66-.24-.66-.96 0-.885 0-1.155.93-1.155z"/></g><g transform="translate(-.004 -.005)" filter="url(#c)"><path class="a" d="M241.186 11.72c1.152 0 1.392-.96 1.392-2.112 0-.768-.1-1.584-.1-2.256 0-1.392-.1-2.592-3.36-2.592h-1.004c-7.392 0-11.52 4.416-12.912 7.056-2.016 3.792-2.256 8.496-2.256 12.432 0 9.408 2.016 15.072 10.896 15.072a10.917 10.917 0 0 0 3.168-.384c1.728-.384 7.06-2.544 7.06-11.52a22.12 22.12 0 0 0-.72-5.9 7.193 7.193 0 0 0-6.624-4.8 6.786 6.786 0 0 0-4.08.912c-.48.24-.672.48-1.056.48-.24 0-.288-.192-.288-.72a6.488 6.488 0 0 1 2.832-4.848 6.726 6.726 0 0 1 3.884-1.06c1.052 0 2.208.24 3.168.24zm-7.824 11.76c2.4 0 2.4 1.92 2.4 4.32s0 4.32-2.4 4.32-2.4-1.92-2.4-4.32 0-4.32 2.4-4.32zm12-1.44c0 9.648 0 17.28 10.32 17.28s10.32-7.68 10.32-17.28c0-9.648 0-17.28-10.32-17.28s-10.32 7.68-10.32 17.28zm10.32-10.08c2.064 0 2.352 2.256 2.352 5.712 0 1.3-.048 2.784-.048 4.368 0 1.632.048 3.216.048 4.608 0 3.5-.288 5.952-2.352 5.952-2.016 0-2.16-2.112-2.16-4.368V16.18c0-2.348.148-4.22 2.16-4.22z"/></g><g transform="translate(.002 .004)" filter="url(#e)"><path class="a" d="M273.431 23.689c0 .234.169.527.642.527l1.475-.016c1.825 0 1.656-.529 3.515-4.1 2.2-4.248 7.1-14.356 7.738-15.88l.1-.381v-.117c0-.469-.087-.538-1.574-.538h-.473c-1.216 0-1.22.117-1.591.791-1.926 3.545-5.238 10.372-7.2 14a49.777 49.777 0 0 0-2.632 5.597zm8.279-4.483c0 3.4.811 5.01 4.325 5.01a5.4 5.4 0 0 0 1.355-.146c.743-.176 2.974-.645 2.974-4.6v-.264a9.822 9.822 0 0 0-.3-2.461 3.087 3.087 0 0 0-2.8-2.022c-.3 0-.574-.029-.845-.029-2.983 0-4.709.85-4.709 4.512zm4.359-1.641c1.284 0 1.284.82 1.284 1.875 0 1 0 1.846-1.284 1.846-1.216 0-1.216-.85-1.216-1.846.002-1.054.002-1.874 1.219-1.874zM270.19 7.9c0 3.4.811 5.01 4.325 5.01a5.4 5.4 0 0 0 1.352-.146c.743-.176 2.974-1.084 2.974-4.864a9.822 9.822 0 0 0-.3-2.461 3.087 3.087 0 0 0-2.8-2.022c-.3 0-.574-.029-.845-.029-2.986-.003-4.706.847-4.706 4.512zm4.359-1.641c1.284 0 1.284.82 1.284 1.875 0 1 0 1.846-1.284 1.846-1.216 0-1.216-.85-1.216-1.846 0-1.057 0-1.878 1.216-1.878z"/></g></svg>