<svg viewBox="0 0 197.563 34.715" xmlns="http://www.w3.org/2000/svg"><defs><style>.a{fill:#4580c2}.a,.b,.c,.d{fill-rule:evenodd}.b{fill:#2e578c}.c{fill:#fbce3b}.d{fill:#eca93e}.k{fill:#f68b51}</style></defs><path class="a" d="M19.094 25.416c-.984.952-1.967 2.25-2.952 3.2.472 2.482-.452 3.575.662 4.465.4.321 2.848 1 4.218.212.031-1.288-.674-1.671-1.426-2.155-.76-1.633-.487-4.116-.5-5.725"/><path class="b" d="M19.658 33.655a2.243 2.243 0 0 0-1.386-1.632 1.812 1.812 0 0 1 .863 1.635c.174.011.35.011.523-.003zm1.173-.259a2.238 2.238 0 0 0-1.379-1.6 1.787 1.787 0 0 1 .847 1.781 2.733 2.733 0 0 0 .532-.181z"/><path class="a" d="M17.941 12.567c-.506.737-.733 2.29 3.309 4.561a34.848 34.848 0 0 1-2.236 3.47 2.446 2.446 0 0 0-.34 2.683 6.387 6.387 0 0 0 .93 1.037 3.919 3.919 0 0 0 1.914-.071 2.589 2.589 0 0 0 .384-2.871s3.407-3.568 3.193-4.641-5.544-6.512-7.154-4.168z"/><path class="b" d="M21.904 21.376s-1.381 1.138-1.728 1.335a4.046 4.046 0 0 0 .8-.347s.612.749.163 1.382a1.1 1.1 0 0 0 .272-1.559 6.455 6.455 0 0 0 .506-.737z"/><path class="a" d="M7.685 20.713a1.469 1.469 0 0 1-.235.742c-.233.37-.367.325.214.643a4.375 4.375 0 0 0 1.381.429c.818.134.626.042.266-.723a6.394 6.394 0 0 0-.558-.984c-.795-1.107-1.035-1.03-1.068-.107m-2.9-.38c-.3.553.159.64.746.846a3 3 0 0 0 .675.151c.661.071.49-.024.2-.559a9.781 9.781 0 0 0-.584-.951c-1.155-1.661-.6-.3-1.037.514m-2.501-.25a3.089 3.089 0 0 1-.014.381c-.044.461-.1.383.476.434a3.318 3.318 0 0 0 .761-.008c.728-.109.463-.363.084-.786a3.2 3.2 0 0 0-.429-.4c-1.438-1.108-.9-.329-.877.377M11.914 3.86s-4.12 2.123-4.083 2.795 1.162.581 1.615 1.488c0 0-2.523 1.742-2.359 2.541s1.779.508 2.2 1.144c0 0-.4 1.589-.036 2.17s.308.08.816.824A28.88 28.88 0 0 1 11.914 3.86z"/><path class="a" d="M11.047 5.793a30.8 30.8 0 0 0 4.957 3.318 10.959 10.959 0 0 1 2.991 2.634c1 1.34.426 2.918.654 4.561.078.559.116 1.125.138 1.688a21.725 21.725 0 0 1-.09 3.079c-.251 2.45-.378 4.442-2.1 6.275-2.158 2.291-4.426 2.7-7.119.724a13.25 13.25 0 0 1-2.678-2.1c-.554-.645-1.241-1.061-1.831-1.661a8.575 8.575 0 0 0-2.646-1.91 2.58 2.58 0 0 0-2.271.379c-.265.121-.627.355-.921.121a.3.3 0 0 1-.1-.369 2.7 2.7 0 0 1 .679-.965 5.417 5.417 0 0 1 6.059-.456 6.062 6.062 0 0 0 2.346.882 2.238 2.238 0 0 0 1.647-.468 2.169 2.169 0 0 0 .676-1.26 3.882 3.882 0 0 0-.141-2.024c-.311-.935-.871-1.784-1.232-2.706-1.232-3.145-1.632-6.729.349-9.668l.275-.408z"/><path class="c" d="M3.658 22.542a15.9 15.9 0 0 1 4.282 3.934c1.852 2.2 6.48 5.439 10.3.347 3.6-4.8 1.9-11.517 1.695-12.282l-.024-.078c-.121-.156-3.329-4.248-6.266-4.85-.784.681-.936 1.878.108 3.944 1.755 3.475 3.158 8.542.038 11.655a4.233 4.233 0 0 1-1.662 1.048c-2.218.732-3.393-.614-4.78-1.911a6.705 6.705 0 0 0-3.691-1.807z"/><path class="d" d="M18.665 26.198a7.4 7.4 0 0 1-3.7-1.511 5.133 5.133 0 0 0 3.277 2.137c.15-.204.292-.411.423-.626zm-6.238.313a8.6 8.6 0 0 0 2.236 2.9 4.848 4.848 0 0 0 .88-.3 7.144 7.144 0 0 1-3.116-2.6zm-4.715-.297l.228.268.106.123a1.536 1.536 0 0 1 .1-.976 5.214 5.214 0 0 0-.434.585zm1.54 1.549q.24.2.5.383a2.331 2.331 0 0 1 .018-1.46 5.349 5.349 0 0 0-.518 1.077z"/><path d="M6.23 24.599q.177.18.356.367a3.128 3.128 0 0 1 .082-.769 3.7 3.7 0 0 0-.438.402z" fill="#edb248" fill-rule="evenodd"/><path class="d" d="M15.956 22.024a7.465 7.465 0 0 1 4.309-.005c.036-.2.069-.4.1-.6a5.311 5.311 0 0 0-4.409.605zm4.491-4.411c-.02-.242-.044-.474-.071-.7a6.605 6.605 0 0 0-4.531 1.381 7.3 7.3 0 0 1 4.602-.681zm-1.182-3.917a21.564 21.564 0 0 0-.39-.432c-3.178 0-4.036 1.476-4.036 1.476a7.025 7.025 0 0 1 4.426-1.044z"/><path class="d" d="M20.403 17.156a18.785 18.785 0 0 0-.352-2.134 8.643 8.643 0 0 1-.227-.141c-1.016-.662-5.478-3.37-6.788-4.146a2.626 2.626 0 0 0-.014.6c1.39 1.908 4.469 5.161 7.381 5.821z"/><path class="a" d="M10.279 24.921a2.022 2.022 0 0 1 1.842-.884c2.044.266 1.4 2.684.907 4.108a11.588 11.588 0 0 0-.579 3.174c0 1.4.537 1.828-.117 2.377a5.554 5.554 0 0 1-3.567.995c-1.135-.257-1.166-2.591.643-3.186a7.132 7.132 0 0 0 .441-3.367 6.5 6.5 0 0 1 .431-3.216"/><path class="b" d="M9.843 34.668c.161-.023.321-.053.478-.089a2.08 2.08 0 0 1 .564-1.89 2.245 2.245 0 0 0-1.042 1.979zm-1.098.016a2.384 2.384 0 0 1 .548-2.1 2.16 2.16 0 0 0-1.027 1.808.921.921 0 0 0 .479.292zm1.052-12.717s-.236 1.352.681 1.806a1.846 1.846 0 0 0 2.205-.177c.658-.79 1.633-2.42-1.007-4.008-1.631-.981-1.715 2.352-1.715 2.352zm.226-6.484c.344.746.654 1.324.669 1.375 0 0 2.133-2.641 1.735-3.078-.439-.482-2.071 1.119-2.404 1.703z"/><path class="a" d="M12.097 11.618c2.287 2.2-2.464 5.131-2.464 5.131a8.373 8.373 0 0 1 1.661 2.259c.49.817.681.681 1.279 1.361s-1.108 1.692-1.108 1.692-5.715-3.088-5.7-5.066a14.8 14.8 0 0 1 2.668-3.811c.676-.686 2.571-2.623 3.664-1.566z"/><path class="a" d="M9.877 20.96s-.427 2.1.83 2.717a2.922 2.922 0 0 0 1.538-.3s1.289-1.978.327-3-2.695.583-2.695.583z"/><path class="b" d="M9.851 21.11s1.653.886 1.941.967a1.545 1.545 0 0 1-.845-.127s-.425.805.067 1.309c0 0-.759-.135-.487-1.4l-.689-.712z"/><path class="a" d="M11.335 5.158S12.195.088 14.3.001c1.383-.057 2.08 1.707 2.08 1.707a4.421 4.421 0 0 1 2.392.71.93.93 0 0 1 1.046-.473c.66.224 1.37 1.694 1.108 4.11a2.1 2.1 0 0 1 1.507 1.034 1.114 1.114 0 0 1-.723.461c-.436.038-2.317-.647-2.828-.2a1.626 1.626 0 0 0-.672 1.607 4.981 4.981 0 0 1-3-1.383c-.935-1.183-1.72-3.475-3.875-2.416z"/><path d="M18.492 5.525s.517-1.7 1.511-2.178a18.4 18.4 0 0 0 .268 2.459 14.9 14.9 0 0 0-1.779-.281zm-4.496-3.49s1.279.612 2.123 3.267a18.318 18.318 0 0 0-2.9-.259 6.94 6.94 0 0 0 .777-3.008z" fill="#f1f1f2"/><path class="b" d="M14.527 3.212c.312 0 .565.348.565.778s-.253.778-.565.778-.565-.348-.565-.778.253-.778.565-.778m4.772 2.069a.612.612 0 0 0 0-1.178.344.344 0 0 0-.136.031 1.573 1.573 0 0 0-.306.515v.043a.532.532 0 0 0 .442.589z"/><path d="M13.696 6.5s-.871-1.007-1.715-.191c-.7.676-.177 1.81-.177 1.81s.05-.979.5-.912c0 0 .381 2.437 3.947 4.873s4.56 2.219 5.336 2.015 1.661-.6 1.361-1.225a13.532 13.532 0 0 0-2.123-2.178 2.6 2.6 0 0 1-2.368.068 13.026 13.026 0 0 1-5.418-4.056s.072-.455.6-.2" fill="#f68b51" fill-rule="evenodd"/><path d="M13.22 9.272a6.053 6.053 0 0 1 5.59 1.506l-.4-.218s1.833-.091 2.087.163a4.34 4.34 0 0 1 1.9 3.222c.055.626-1.429.98-4.728-.662-2.059-1.024-4.449-4.011-4.449-4.011z" fill="#f26a23" fill-rule="evenodd"/><path d="M17.232 9.689l.077.038z" fill="#c56428" fill-rule="evenodd"/><path d="M20.678 10.679s-.444 1.821-1.13 1.62c-.231-.068-.136-.585-.231-.939s-.354-1.035-.354-1.035zm3.397-.688s-.144 1.869-.853 1.781c-.239-.029-.229-.555-.38-.889s-.517-.967-.517-.967z" fill="#ebeef2" fill-rule="evenodd"/><path class="c" d="M24.83 8.351c-.092-1.315-1.827-1.894-3.1-.968-1.041-.232-2.2-.926-3.24.115a1.193 1.193 0 0 0-.315 1.446s-2.164-.349-2.913-1.452-1.715-2.577-2.777-2.682a1.8 1.8 0 0 0-2.042.926c-.545 1.062-.817 2.981 3.212 6.016s5.807 3.853 6.683 3.852c1.121 0 1.189-.418 2.477-.6.658-.092 1.157-1.211.436-2.178a13.051 13.051 0 0 0-2.423-2.137 13.532 13.532 0 0 1 2.123 2.178c.3.626-.585 1.021-1.361 1.225s-1.769.422-5.336-2.015-3.947-4.873-3.947-4.873c-.453-.067-.5.912-.5.912s-.522-1.134.177-1.81c.841-.814 1.713.194 1.713.194h-.052c-.529-.255-.6.2-.6.2a13.026 13.026 0 0 0 5.418 4.056 2.6 2.6 0 0 0 2.368-.068 15.036 15.036 0 0 0 2.2-.177 1.92 1.92 0 0 0 1.799-2.16z"/><path class="d" d="M19.661 8.212c.362-.117.641.371.163.585-.067.18.041.377.334.446a.573.573 0 0 1-.5-1.031m4.094-.151c-.3-.1-.529.307-.135.483.055.149-.034.311-.276.368a.473.473 0 0 0 .411-.851"/><path class="k" d="M79.828 23.417c.245 1.5 1.609 2.064 3.113 2.064 1.469 0 2.642-.631 2.677-1.4.053-1.162-.859-1.852-2.153-2.1-.892-.172-3.568-.7-3.568-.7-3.253-.6-5.107-1.536-5.107-4.3 0-3.6 3.113-5.946 7.555-5.946 4.372 0 7.275 1.994 7.975 5.037l-5.107 1.014a2.725 2.725 0 0 0-2.938-2.064c-1.5 0-2.257.632-2.4 1.364-.092.481.14.882 1.733 1.224 1.03.222 4.128.84 4.128.84 3.323.7 4.862 2.693 4.862 5.282 0 3.883-3.358 5.911-7.975 5.911-4.127 0-7.66-1.5-8.254-5.107zm51.013-7.985a17.068 17.068 0 0 1 .14 2.143c0 7.132-5.094 12.262-12.191 12.262a12.3 12.3 0 1 1-.105-24.593c5.235 0 9.838 2.459 11.489 7.062l-5.587 1.616a6.062 6.062 0 0 0-5.9-3.373 6.74 6.74 0 0 0-6.746 6.991 6.828 6.828 0 0 0 6.922 7.027 6.173 6.173 0 0 0 6.218-4.216h-7.2v-4.919zM53.152 28.91H47.39V19.6h-9.908v9.31h-5.8V5.37h5.8v9.165h9.908v-9.17h5.762zm20.868-8.82c0 5.586-4.427 9.31-9.662 9.31-5.34 0-9.767-3.724-9.767-9.31 0-5.551 4.427-9.275 9.767-9.275 5.235.001 9.662 3.725 9.662 9.275zm-5.411 0a4.311 4.311 0 1 0-4.251 4.567 4.388 4.388 0 0 0 4.25-4.567z"/><path class="k" d="M106.296 28.135a9.58 9.58 0 0 1-4.814 1.3c-4.392 0-7.027-2.389-7.027-7.027v-6.673h-3.2v-4.462h3.2V6.581l5.621-1.211v5.9h5.2v4.465h-5.2v6.113c0 1.827.878 2.565 2.354 2.565a5.74 5.74 0 0 0 2.565-.7zm42.474-10.398V28.91h-5.411v-1.3a7.793 7.793 0 0 1-5.27 1.827c-3.935 0-6.57-2.284-6.57-5.762 0-3.443 2.635-5.692 7.343-5.692h4.5v-.352a2.351 2.351 0 0 0-2.494-2.459c-1.687 0-2.671.667-2.952 2.213l-5.308-1.091c.773-3.408 3.865-5.551 8.081-5.551 4.954.003 8.081 2.497 8.081 6.994zm-5.411 4.216v-.387h-3.865c-1.405 0-2.283.738-2.283 1.827 0 1.124.983 1.827 2.459 1.827a3.455 3.455 0 0 0 3.689-3.266zm21.285 6.182a9.579 9.579 0 0 1-4.813 1.3c-4.392 0-7.026-2.389-7.026-7.027v-6.673h-3.2v-4.462h3.2V6.581l5.621-1.211v5.9h5.2v4.465h-5.2v6.113c0 1.827.878 2.565 2.354 2.565a5.742 5.742 0 0 0 2.565-.7z"/><path class="k" d="M183.19 20.09c0 5.586-4.427 9.31-9.662 9.31-5.34 0-9.767-3.724-9.767-9.31 0-5.551 4.427-9.275 9.767-9.275 5.235.001 9.662 3.725 9.662 9.275zm-5.411 0a4.311 4.311 0 1 0-4.251 4.567 4.388 4.388 0 0 0 4.251-4.567zm19.781-8.924l-.246 5.621H196.3c-3.935 0-6.078 2.038-6.078 6.606v5.516H184.6V12.483l5.621-1.211v3.373a6.812 6.812 0 0 1 6.078-3.619 4.819 4.819 0 0 1 1.261.14z"/></svg>