<svg xmlns="http://www.w3.org/2000/svg" xmlns:xlink="http://www.w3.org/1999/xlink" width="418.312" height="245.855"><defs><linearGradient id="a" y1=".5" x2="4.522" y2=".5" gradientUnits="objectBoundingBox"><stop offset="0" stop-color="#dc0e00"/><stop offset=".38" stop-color="#ed2a00"/><stop offset=".754" stop-color="#fa3f00"/><stop offset="1" stop-color="#ff4700"/></linearGradient><linearGradient id="b" x1="-1.484" y1=".5" x2="5.335" y2=".5" xlink:href="#a"/><linearGradient id="c" x1="-1.82" y1=".5" x2="2.986" y2=".5" xlink:href="#a"/><linearGradient id="d" x1="-3.627" y1=".5" x2="2.24" y2=".5" xlink:href="#a"/><linearGradient id="e" x1="-3.314" y1=".5" x2="1" y2=".5" xlink:href="#a"/><linearGradient id="f" x1="0" y1=".504" x2="5.855" y2=".504" xlink:href="#a"/><linearGradient id="g" x1="-.771" y1=".5" x2="4.38" y2=".5" xlink:href="#a"/><linearGradient id="h" x1="-3.346" y1=".504" x2="6.53" y2=".504" xlink:href="#a"/><linearGradient id="i" x1="-2.185" y1=".504" x2="2.951" y2=".504" xlink:href="#a"/><linearGradient id="j" x1="-3.301" y1=".504" x2="2.112" y2=".504" xlink:href="#a"/><linearGradient id="k" x1="-4.652" y1=".504" x2="1" y2=".504" xlink:href="#a"/></defs><path d="M351.204 31.744L257.92 235.371l-61.206-119.09z" stroke="#ffa200" stroke-linejoin="round" fill="transparent" stroke-miterlimit="10" stroke-width="4.101"/><path d="M215.708 93.063l55.53-29.69h32.97l-91.28 50.68zm67.442 71.21l39.893-81.339 15.928.153-39.162 81.347z"/><path d="M262.477 68.947c1.716 0 2.82.313 2.717.9l-.281 1.6c-.04.229-.192.625-.895.625h-.165c-.331 0-1.036-.229-1.635-.229a.916.916 0 0 0-1.035.833c-.113.646.015.979.7 1.646 2.1 2.041 2.344 3.5 2.049 5.187a5.163 5.163 0 0 1-1.021 2.646 4.942 4.942 0 0 1-2.486 1.562 9.169 9.169 0 0 1-2.025.23c-1.53 0-2.968-.292-2.822-1.125l.281-1.6c.044-.25.294-.5.852-.5a15.52 15.52 0 0 0 2.116.312 1.675 1.675 0 0 0 1.558-1.1c.084-.479.125-.833-.917-2.083-1.591-1.9-2.348-2.771-2.049-4.479.723-4.112 3.404-4.425 5.058-4.425zm11.716 10.666c-.452 2.583-1.048 4.333-5.2 4.333-4.363 0-4.363-1.771-3.889-4.479 1.152-6.583 1.551-8.749 1.551-8.749.146-.833.292-1.667 1.533-1.667h1.034c1.241 0 1.095.833.949 1.667l-1.6 9.166c-.109.625-.2 1.146.937 1.146.93 0 1.022-.521 1.131-1.146l1.608-9.187c.143-.812.288-1.646 1.529-1.646h1.034c1.241 0 1.095.833.953 1.646zm4.924-.5l-.536 3.062c-.146.833-.292 1.666-1.532 1.666h-1.032c-1.24 0-1.095-.833-.949-1.666l2.005-11.457c.146-.833.291-1.667 1.532-1.667h4.487c2.233 0 3.174 1.833 2.663 4.75a11.181 11.181 0 0 1-1.231 3.375c-.91 1.417-2.91 1.625-4.069 1.625a5.04 5.04 0 0 1-.758-.041c-.496-.001-.546.165-.58.353zm1.07-6.229c-.048.271-.089.625-.166 1.062-.073.417-.159.792-.2 1.041-.121.688-.019.813.809.813 1.1 0 1.3-.917 1.462-1.854s.158-2.083-.772-2.083c-.83 0-1.003.271-1.132 1.021zm9.109 7.145c-.039.458.334.687.748.687 1.178 0 1.579-.041 2.013-.041.868 0 1.093.25.984.875l-.255 1.458c-.109.625-.352.833-.973.833h-5.459c-1.24 0-1.021-1.25-.948-1.666l2.005-11.457c.146-.833.291-1.667 1.532-1.667h5.335c.517 0 .936.209.863.625l-.31 1.771c-.088.5-.5.521-1.021.521-.806 0-1.44-.041-1.957-.041-1.137 0-1.209.416-1.327 1.083-.237 1.354-.3 1.709.735 1.709 1.282 0 1.5-.042 1.972-.042.724 0 .638.729.6.958l-.233 1.333c-.11.625-.551.667-1.068.667-1.054 0-1.708-.042-2.143-.042-.661 0-.712.292-.833.979zm12.548-10.978c3.08 0 3.559 2.229 3.128 4.687-.263 1.5-.451 2.458-1.8 3.458-.667.5-.988.208-1.126 1-.149.854-.063 1.9.619 1.9a2.993 2.993 0 0 0 .68-.1c.662 0 .667.563.5 1.521-.08.458-.2 1.021-.309 1.646-.073.417-.3.792-1.379.792-1.9 0-2.626-1.417-2.749-2.958-.157-1.937-.719-2.271-.843-2.271-.166 0-.224.333-.253.5l-.517 2.958c-.146.833-.292 1.666-1.532 1.666h-1.447c-.827 0-.681-.833-.535-1.666l2.005-11.457c.146-.833.292-1.667 1.532-1.667zm-2.427 3.708c-.048.271-.111.75-.187 1.187-.073.417-.159.792-.2 1.041-.12.688-.018.813.809.813.931 0 1.3-.917 1.461-1.854s.158-2.083-.772-2.083c-.83 0-.98.146-1.111.896z" fill="#fff"/><path d="M3328.569 399.084a.2.2 0 0 0 .147.238c3.2 1.142 3.77 4.9 3.188 8.231a13.314 13.314 0 0 1-2.191 5.233c-3.063 4.282-5.064 4.377-8.133 4.377h-10.531c-2.833 0-2.5-1.9-2.167-3.806l4.579-26.167c.333-1.9.666-3.806 3.5-3.806h10.153c6.092 0 7.406 4.092 6.64 8.468a9.445 9.445 0 0 1-4.955 6.994.3.3 0 0 0-.23.238zm-10.452 7.374c-.5 2.855-.75 4.282 1.847 4.282 2.361 0 2.972-2.141 3.346-4.282s.733-4.186-1.864-4.186-2.83 1.328-3.329 4.186zm2.348-13.416c-.416 2.379-.558 3.188 1.8 3.188 1.889 0 2.627-1.522 2.919-3.188s.094-3.235-1.8-3.235c-2.353 0-2.503.856-2.919 3.235z" transform="translate(-3091.625 -295.479)" fill="url(#a)"/><path d="M3441.41 410.265c1.983 0 2.037 1.047 1.787 2.474l-.108.619c-.333 1.9-.666 3.806-3.5 3.806h-10.672c-2.833 0-2.5-1.9-2.167-3.806l4.58-26.167c.333-1.9.666-3.806 3.5-3.806h2.361c2.833 0 2.5 1.9 2.167 3.806l-3.589 20.506c-.2 1.142-.458 2.617 1 2.664 2.499-.001 3.649-.096 4.641-.096z" transform="translate(-3184.607 -295.479)" fill="url(#b)"/><path d="M3537.377 414.784c-.383 2.188-1.88 2.379-4.572 2.379h-2.5c-2.928 0-.215-7.136-2.1-7.136h-3.778c-1.889 0-2.052 7.136-4.885 7.136h-2.219c-2.456 0-3.886-.19-3.5-2.379.5-2.855 2.074-5.376 9.646-27.594.794-2.379 1.988-3.806 3.877-3.806h7.272c1.889 0 2.583 1.427 2.639 3.806-.212 19.51.62 24.74.12 27.594zm-11.527-12.656c-.133.761.2.761 1.708.761 1.465 0 1.842 0 1.967-.714a5.016 5.016 0 0 0 .086-.761c.25-4.663 1.068-10.419.03-10.419-.992 0-2.322 5.709-3.619 10.419a4.479 4.479 0 0 0-.171.715z" transform="translate(-3253.411 -295.479)" fill="url(#c)"/><path d="M3661.373 382.266c1.181 0 1.695.571 1.528 1.522l-.733 4.187c-.083.476-.208 1.189-2 1.189-.945 0-.975-.1-1.494-.1-4.486 0-5.927 8.231-6.227 9.943-.283 1.618-1.784 10.467 2.466 10.467.614 0 .631-.1 1.717-.1 1.795 0 1.495 1.713 1.412 2.188l-.558 3.188a1.92 1.92 0 0 1-2.1 1.76c-6.705 0-13.956-3.093-11.417-17.6 2.368-13.552 10.7-16.644 17.406-16.644z" transform="translate(-3355.72 -294.599)" fill="url(#d)"/><path d="M3746.235 415.736c-.15.856-1.006 1.427-2.705 1.427h-2.456c-3.022 0-3.094-.666-3.593-3.759-1.034-6.233-1.087-10.515-2.456-10.515-.284 0-.453.428-.562 1.047s-.163 1.475-.3 2.284l-1.249 7.136c-.333 1.9-.667 3.806-3.5 3.806h-2.361c-2.833 0-2.5-1.9-2.167-3.806l4.58-26.167c.333-1.9.666-3.806 3.5-3.806h2.361c2.833 0 2.5 1.9 2.167 3.806-1.474 8.421-1.474 8.421-1.238 8.421 1.417 0 3.721-5.614 4.394-6.756 2.216-3.758 2.657-5.471 5.066-5.471h2.739c1.605 0 2.928 0 2.695 1.332a7.351 7.351 0 0 1-1.243 2.522c-2.061 3.14-7.533 10.657-7.583 10.943a4.514 4.514 0 0 0 .311 1.189c.284 1.047 3.883 13.941 3.6 16.367z" transform="translate(-3419.794 -295.479)" fill="url(#e)"/><path d="M3384.437 575.581c-.385 2.2-.513 2.932 1.488 2.932 1.91 0 2.381-.091 3.154-.091 2.592 0 2.611.412 2.25 2.474l-.073.412c-.577 3.3-.657 3.757-3.75 3.757-.909 0-2.485-.091-3.167-.091-1.5 0-1.6.321-2.011 2.657l-1.219 6.965c-.32 1.832-.641 3.665-3.37 3.665h-2.274c-2.729 0-2.408-1.833-2.087-3.665l4.41-25.2c.241-1.375.642-3.666 3.37-3.666h11.278c1.137 0 2.058.458 1.9 1.374l-.681 3.895c-.161.916-.565 1.146-2.2 1.146-1.137 0-1.439-.092-3.576-.092-2.825 0-2.97.825-3.442 3.528z" transform="translate(-3142.51 -439.037)" fill="url(#f)"/><path d="M3477.973 565.73c6.776 0 7.828 4.9 6.882 10.309-.577 3.3-.992 5.407-3.969 7.606-1.466 1.1-2.172.458-2.477 2.2-.329 1.879-.138 4.17 1.362 4.17a6.572 6.572 0 0 0 1.495-.229c1.456 0 1.466 1.237 1.1 3.344-.177 1.008-.438 2.245-.679 3.62-.16.916-.669 1.741-3.033 1.741-4.184 0-5.776-3.116-6.046-6.506-.346-4.261-1.582-4.994-1.855-4.994-.364 0-.492.733-.556 1.1l-1.139 6.506c-.321 1.832-.642 3.665-3.37 3.665h-3.188c-1.819 0-1.5-1.833-1.178-3.665l4.411-25.2c.321-1.833.641-3.666 3.37-3.666zm-5.338 8.156c-.1.6-.243 1.649-.411 2.612-.16.916-.35 1.741-.446 2.291-.265 1.512-.04 1.787 1.779 1.787 2.046 0 2.854-2.016 3.214-4.078s.348-4.582-1.7-4.582c-1.819 0-2.148.32-2.436 1.97z" transform="translate(-3211.857 -439.037)" fill="url(#g)"/><path d="M3580.135 594.6c-.321 1.832-.642 3.665-3.371 3.665h-2.274c-2.728 0-2.407-1.833-2.087-3.665l4.41-25.2c.321-1.833.642-3.666 3.37-3.666h2.274c2.729 0 2.408 1.833 2.087 3.666z" transform="translate(-3299.516 -439.037)" fill="url(#h)"/><path d="M3637.839 565.73c10 0 10.247 6.415 8.523 16.265-1.644 9.393-3.756 16.266-14.217 16.266h-6.821c-2.728 0-2.407-1.833-2.087-3.665l4.41-25.2c.321-1.833.642-3.666 3.37-3.666zm-3.2 7.606c-.906 5.177-1.847 10.813-2.794 16.22-.208 1.191-.31 2.291.509 2.291 3.411 0 4.12-2.749 5.4-10.08 1.123-6.414 1.5-9.851-1.914-9.851-.812 0-1.028.458-1.196 1.42z" transform="translate(-3339.616 -439.037)" fill="url(#i)"/><path d="M3754.121 595.971c-.368 2.107-1.811 2.291-4.4 2.291h-2.41c-2.82 0-.207-6.873-2.026-6.873h-3.638c-1.819 0-1.976 6.873-4.7 6.873h-2.147c-2.365 0-3.743-.183-3.374-2.291.481-2.749 2-5.178 9.29-26.575.765-2.291 1.915-3.666 3.734-3.666h7c1.82 0 2.488 1.374 2.542 3.666-.192 18.785.608 23.825.129 26.575zm-11.1-12.188c-.128.733.19.733 1.645.733 1.41 0 1.773 0 1.894-.687a4.83 4.83 0 0 0 .083-.733c.24-4.49 1.029-10.034.029-10.034-.955 0-2.236 5.5-3.484 10.034a4.272 4.272 0 0 0-.167.687z" transform="translate(-3425.082 -439.037)" fill="url(#j)"/><path d="M3860.822 598.261c-2.729 0-2.408-1.833-2.087-3.665l1.211-6.919c.433-2.474-.929-8.2-1.411-10.126l-.08-.321c-.549-2.062-2.013-9.026-1.788-10.309a1.374 1.374 0 0 1 1.527-1.191h5.184c1.456 0 1.565 1.97 1.633 3.666.061 1.466.665 6.6.683 7.01-.011.321.185.5.366.5a.564.564 0 0 0 .536-.458c.117-.412 2.387-5.59 3.008-7.056.706-1.7 1.6-3.666 3.234-3.666h4.047c1.364 0 1.865 0 1.656 1.191-.225 1.283-4.089 8.293-5.352 10.309-.57.917-1.711 3.024-3.084 5.407-2.035 3.574-2.251 4.032-2.957 8.064l-.714 4.078c-.313 1.787-.61 3.482-3.338 3.482z" transform="translate(-3523.907 -439.037)" fill="url(#k)"/><path d="M26.513 124.095l106.42 120.49-13.77-88.706zm123.289-79.223l43.234-10.46-41.657-25.194z" fill="none" stroke-width="2" opacity=".6" stroke="#ffa200" stroke-linejoin="round"/></svg>