<svg xmlns="http://www.w3.org/2000/svg" width="416.607" height="323.898"><defs><style>.h,.x{fill:none}.x{stroke-miterlimit:10}.d{fill:#4480c2}.e{fill:#fac6b3}.f{fill:#eeac94}.g{fill:#1e3767}.h{stroke:#fccf3b;stroke-width:2.646px;stroke-linecap:round;stroke-linejoin:round}.i{fill:#296089}.j{fill:#4b5659}.k{fill:#1b649b}.t{fill:#1d2336}.v{fill:#122a4f}.w{fill:#4580c2}.x{stroke:#4580c2;stroke-width:2.124px}.aa{fill:#254270}</style><clipPath id="a"><path d="M672.854 294.782l-185 45.673L517.995 34.47l147.769-6.457z" transform="translate(-485.651 -28.013)" fill="none"/></clipPath></defs><path d="M295.709 248.113L203.973 98.245 5.811 320.388z" stroke-width="4" stroke-miterlimit="10" stroke="#ffa200" fill="none"/><path d="M183.391 116.342L84.503 223.611v25.351l113.108-124.491z"/><g clip-path="url(#a)" transform="translate(26.701)"><g transform="translate(16.764 10.789)"><path class="d" d="M20.392 158.196s-16.354 44.737 2.664 44.737c17.765 0 29.224-70.237 29.224-70.237s7.284-14.545-6.475-12.128-25.413 37.628-25.413 37.628z"/><path class="e" d="M86.621 124.925l-.419.011a11.591 11.591 0 0 1-11.892-11.282l-.327-12.455a11.6 11.6 0 0 1 11.283-11.894l.418-.01a11.59 11.59 0 0 1 11.892 11.28l.328 12.455a11.594 11.594 0 0 1-11.284 11.893"/><path class="f" d="M98.475 105.353l-.011-.419a11.801 11.801 0 0 0-23.6.373c0 .082 0 .164.006.246l.345 13.117c7.75 1.017 20.613-7.051 23.261-13.316"/><path class="d" d="M42.962 121.534s-5.662 28.426.6 66.326c2.845 17.225 4.457 61.552 4.457 61.552l79.054 1.025s25.052-130.836 10.27-136.249c-33.831-12.387-94.381 7.346-94.381 7.346z"/><path class="g" d="M124.903 110.529s-20.707 30.219-22.135 50.493c-24.425.387-45.722-.4-45.722-.4s-10.549-39.925-6.6-43.625c11.283-1.177 13.748-2.8 13.748-2.8l.734-5.966 38.431-6.143 4.276 7.347z"/><path class="h" d="M123.972 112.034s-20.791 32.9-21.2 48.988c-28.428 0-45.722-.4-45.722-.4s-9.091-33.749-6.977-42.1"/><path class="i" d="M129.233 135.376s4.607 79.593-34.689 91.748c-30.577 9.458-48.046-7.938-48.046-7.938l1.89 29.061 79.782-.92s21.028-100.179 1.063-111.951z"/><path class="d" d="M158.872 148.99s8.77 52.2-8.959 53.943c-17.68 1.742-21.648-70.237-21.648-70.237s-4.685-20.925 9.074-18.509 21.533 34.803 21.533 34.803z"/><path class="h" d="M79.707 108.991l.813 11.574s-7 59.242-2.559 122.138"/><path class="g" d="M132.887 110.337l-6.548 19.049s12.906 4.052 15.678 23.962c8.415-.686 19.425-4.354 19.425-4.354s-1.694-36.813-28.555-38.657zm-88.665 8.18l1.573 17.129s-7.464.358-10.681 18.378c-14.038-2.674-15.321-3.814-15.321-3.814s6.509-31.175 24.429-31.693z"/><path class="h" d="M105.557 109.764s-16 11.211-25.715 10.793c-12.545-.54-14.912-5.391-14.912-5.391"/><path class="d" d="M73.288 187.241l70.418 15.4a12.5 12.5 0 0 0 5.337-24.416 14.046 14.046 0 0 0-1.879-.263l-71.937-4.554a7 7 0 0 0-1.939 13.828"/><path class="j" d="M131.704 176.037s-6.947 11.964-4.052 23.929c-23.254-5.307-52.876-11.8-52.876-11.8s-2.144-15.354 5.093-14.678 51.835 2.549 51.835 2.549z"/><path class="k" d="M34.476 178.944c-4.787-4.14 1.585-10.241 8.87-12.96a19.8 19.8 0 0 1 2.4-.717c-1.966-1.555-2.984-3.208-2.27-4.308 2.125-3.288 4.3.391 9.163 2.283 1.726.673 3.389 1.183 4.782 1.655 1.184.154 2.4.354 3.663.639 11.409 2.592 21.1 7.88 20.1 13.382-.939 5.184-7.2 10.14-20.086 5.883-5.319-.97-11.343.062-12.416 3.1-1.052 2.977-5.656 3.019-5.956.083-3.265-.15-5.174-1.583-5.342-3.932-2.676-.704-3.853-2.702-2.908-5.108z"/><path d="M77.454 188.55s24.9-12.643 29.674-12.758c-14.812-1.938-34.088 2.69-36.244 6.421s-1.322 4.612 6.57 6.337z" fill="#0c1728"/><path class="d" d="M96.675 161.476l-75.722 14.8a14.144 14.144 0 1 0 5.424 27.764 15.273 15.273 0 0 0 2.186-.614l72.38-26.724a7.927 7.927 0 0 0-4.267-15.216"/><path class="d" d="M98.015 177.213s8.144 1.521 14.4.234a69.138 69.138 0 0 1 14.979-.732h5.5s-.4-4.429-2.077-6.261c-.872-3.551-2.536-3.8-3.387-4.118a5.545 5.545 0 0 0-3.758-3.038s-1.77-2.764-3.784-3.212-9.255-5.544-31.085 3.166c-4.738 5.163 3.429 13.3 9.212 13.961z"/><path class="k" d="M81.689 184.673c-.25-.4.6-.034.685-.07.134-.057 13.349-4.948 16.465-6.192 3.225 1.15 10.957.278 16.6-.49l.579-.079c1.775-.284 11.118-.239 15.822-.209h1.05a.933.933 0 0 0 .917-.887c.1-2.935-1.418-8.572-7.871-8.9a.919.919 0 1 0-.093 1.835c4.923.25 5.9 4.283 6.086 6.118h-.083c-.554 0-13.741-.053-16.069.224l-.588.081c-10.864 1.486-14.675 1.087-15.953.49a.91.91 0 0 0-.721-.025c-2.389.927-15.908 6.62-16.483 6.862a.918.918 0 0 0-.49 1.2c.157.383-.245.083.147.042z"/><path class="k" d="M130.331 171.228a.919.919 0 0 0 .816-.807c.6-5.2-6.724-6.571-7.036-6.627a.918.918 0 0 0-.324 1.808c.06.01 5.94 1.115 5.535 4.608a.92.92 0 0 0 .807 1.018.949.949 0 0 0 .202 0z"/><path class="k" d="M127.831 166.505a.909.909 0 0 0 .476-.195.918.918 0 0 0 .146-1.29c-2.689-3.382-7.787-3.969-8-3.993a.918.918 0 0 0-.2 1.826c.046 0 4.558.534 6.765 3.31a.917.917 0 0 0 .813.342z"/><path d="M74.479 187.85l53.173 12.119s-37.289-13.6-36.346-18.206c-6.072 3.759-16.827 6.087-16.827 6.087z" fill="#31383a"/><path class="k" d="M94.544 179.097L28.99 202.814s2.7-3.492 11.735-7.2 53.819-16.517 53.819-16.517z"/><path d="M152.755 179.69s-7.284-3.917-19.868-2.979m-9.855-14.271s-4.612-7.059-25.123-2.126-77.99 16.208-77.99 16.208" stroke="#4d97ce" stroke-width="2.564" stroke-linejoin="round" stroke-linecap="round" fill="none"/><path class="g" d="M160.691 178.769s-16.784 20.818-31.978 20.791c13.617 7.352 32.611 11.636 31.978-20.791z"/><path d="M13.85 179.411s-4.15 22.174 10.148 24.89c-13.219-.251-17-7.55-17.265-13.208s7.117-11.682 7.117-11.682z" fill="#071f42"/><path class="j" d="M97.908 179.411s6-16.3-6.159-19.7c-47.882 9.068-55 11.433-55 11.433s8.13 19.865 5.513 27.6c18.426-6.025 55.646-19.333 55.646-19.333z"/><path d="M55.879 16.918a16.956 16.956 0 0 0-11.487 8.987c-1.43 2.373-.55 3.772.8 3.518s-2.81 24.388 6.369 28.372c13.18-16.834 14.721-41.669 4.958-40.939" fill="#29393f"/><path class="e" d="M124.729 55.127c-.387 23.411-20.489 60.875-47.082 59-33.144-2.331-29.654-30.773-29.995-58.577-.181-14.848 2.329-38.551 38.788-41.723 21.56-1.873 38.717 15.374 38.289 41.3"/><path class="f" d="M120.456 75.863s-15.741 36.4-43.069 35.358c-17.733-.677-24.871-11.382-24.871-11.382s7.409 17.338 30.919 14.079c26.074-3.613 37.021-38.055 37.021-38.055z"/><path class="e" d="M70.906 61.392c-7.484 9.81-5.346 15.048-4.145 15.953 1.69 1.271 5.357.819 9.352-1.134"/><path class="f" d="M116.924 83.923l-.182-.065a5.358 5.358 0 0 1-3.238-6.85l2.125-5.934a5.358 5.358 0 0 1 6.851-3.236l.182.066a5.356 5.356 0 0 1 3.238 6.848l-2.125 5.933a5.356 5.356 0 0 1-6.848 3.237"/><path class="e" d="M115.558 83.572l-.182-.065a5.358 5.358 0 0 1-3.239-6.85l2.126-5.934a5.358 5.358 0 0 1 6.85-3.236l.183.066a5.357 5.357 0 0 1 3.238 6.848l-2.125 5.933a5.357 5.357 0 0 1-6.849 3.237"/><path class="f" d="M113.464 71.024s.654-15.687-2.145-17.146-6.559-8.962-4.221-11.349c-6.154-1.6-11.479-3.284-7.985-10.052-16.738 2.532-32.219 6.269-33.658 2.279-4.855 1.206-12.9-.207-7.59-4.646s27.852-11.6 27.852-11.6 23.435.69 23.539 2.211 13.524 33.638 4.208 50.303z"/><path d="M125.305 71.024s12.929-30.1 3.759-32.92c.374-7.655 1.064-12.218-.283-12.6s-1.593 1.306-1.593 1.306S116.443 4.288 89.581.01c-2.006-.215.4 2.883.4 2.883S78.867-1.591 80.995.842l2.126 2.433S57.202-.784 51.666 19.313c-1.285 4.31 2.148 8.141 5.242 4.692-2.866 6.769-1.306 9.859 4.187 7.835l5.492-2.025s2.2 4.629 6.9 3.92 22.937-2.242 31.528-5.1c-3.555 3.411-6.054 9.983-1.733 10.728a16.061 16.061 0 0 0 6.288.2s-1.474 5.031.57 8.7 4.34 4.148 3.3 8.812-3.162 11.443.018 13.941a8.022 8.022 0 0 0 5.875 2.024z" fill="#394d56"/><path d="M75.974 91.075a21.066 21.066 0 0 0 11.048-5.17.875.875 0 0 0-1.172-1.3 19.436 19.436 0 0 1-21.8 2.816.875.875 0 0 0-.8 1.554 21.083 21.083 0 0 0 12.724 2.1zm-5.473-12.201a18.421 18.421 0 0 0 6-1.876.875.875 0 1 0-.769-1.571c-4.215 2.06-7.277 2.1-8.442 1.22-.45-.834.413-8.315 5.486-19.753a.875.875 0 0 0-1.6-.709c-4.11 9.264-7.075 20.26-4.938 21.86a6.034 6.034 0 0 0 4.263.829z" fill="#eaaf9d"/><path d="M127.974 64.551s-3.723-10.034-21.778-15.143c-7.084-2-22.11-2.431-32.69-2.431-21.417 0-25.749 1.8-25.749 1.8s-4.064 10.521-.493 20.541c5.91.836 20.22-1.2 20.22-1.2s2.741-11.24 5.412-11.09 6.078 11.09 6.078 11.09a246.161 246.161 0 0 0 28.64-.232 116.674 116.674 0 0 1 19.152-.117z" fill="#fccf3b" opacity=".78"/><path class="j" d="M82.02 68.434s-4.979-14.367-9.64-14.364c-3.764 0-7.7 14.417-7.7 14.417h2.8s3.606-11.026 5.349-10.969 6.309 10.969 6.309 10.969z"/><path class="g" d="M105.821 50.38s4.174 6.41 4.133 8.491c-.047 2.412-6.638 10.39-6.638 10.39l23.452-1.485 1.374-3.67s-6.854-13.1-21.946-15.072a4.479 4.479 0 0 0-.375 1.346z"/><path class="j" d="M106.417 49.66l-.06.366a1.008 1.008 0 0 1-1.136.841c-4.139-.585-20.552-2.771-31.965-2.336-10.925.416-22.176 1.414-25.673 1.741a1.01 1.01 0 0 1-1.1-1.009 1.008 1.008 0 0 1 .852-1 218.358 218.358 0 0 1 25.736-2.173c17.531-.274 29.251 1.757 32.553 2.414a1.009 1.009 0 0 1 .793 1.156zm5.665 4.41s2.63 4.982 2.317 5.984-3.883 4.5-3.883 4.5 5.636-2.806 5.762-4.371-4.196-6.113-4.196-6.113zm5.199 3.291s1.878 2.585 1.5 3.917-2.5 3.273-2.5 3.273 4.142-1.867 4.136-2.806-3.136-4.384-3.136-4.384z"/><path class="t" d="M65.259 58.124a2.487 2.487 0 1 1-2.551-2.421 2.487 2.487 0 0 1 2.55 2.421"/><path d="M54.271 52.599l.215 1.27a1.6 1.6 0 0 0 1.778 1.332 35.2 35.2 0 0 1 9.135.041 1.6 1.6 0 0 0 1.77-1.337l.223-1.365a1.621 1.621 0 0 0-1.347-1.856l-.079-.011a40.065 40.065 0 0 0-10.3.064 1.619 1.619 0 0 0-1.4 1.809c0 .018 0 .035.007.053m28.581.324l.29 1.251a1.6 1.6 0 0 0 1.859 1.224 35.167 35.167 0 0 1 9.119-.534 1.6 1.6 0 0 0 1.684-1.445l.138-1.377a1.618 1.618 0 0 0-1.457-1.765l-.075-.006a40.045 40.045 0 0 0-10.28.708 1.623 1.623 0 0 0-1.288 1.9c0 .016.007.033.01.049" fill="#1f2528"/><path class="t" d="M92.596 58.123a2.486 2.486 0 1 1-2.551-2.42 2.486 2.486 0 0 1 2.55 2.42"/><path class="v" d="M53.486 437.317a3.232 3.232 0 0 0-3.194-3.356l-21.543-.242a3.233 3.233 0 0 0-3.268 3.313l1.018 40.774a3.2 3.2 0 0 0 .1.706c-.513.093.443.286-.006.559l-9.085 10.388c-.03-.049-.055-.1-.085-.144-12.889-.325-16.355 7.106-17.1 9.34a4.266 4.266 0 0 0-.171.583.367.367 0 0 0-.009.043c-.011.052-.02.1-.029.154a3.771 3.771 0 0 0 2.2 4.543 4.148 4.148 0 0 0 1.289.423c.2.043.325.057.325.057h.353l42.73-1.389a3.821 3.821 0 0 0 3.276-1.476 4.253 4.253 0 0 0 1.046-2.748v-.37l.03-2.685.318-12.814a4.3 4.3 0 0 0-.075-.846 3.22 3.22 0 0 0 .192-.978z"/><path class="w" d="M30.383 438.07l-.458 40.711-10.084 10.824s-7.152.461-4.132 1.469 8.662.1 8.662.1 9.733-8.445 10.644-12.443 1-40.6 1-40.6z"/><path class="d" d="M46.192 280.383l-9.261 67.183c-.843 13.251 5.086 17.426 14.151 18.675l1.042.144c9.065 1.25 13.3-7.389 15.488-14.464l15.624-58.81c1.25-9.065-8.261-25.484-17.326-26.734l-1.044-.143a16.567 16.567 0 0 0-18.674 14.149"/><path class="d" d="M34.85 355.116L24.401 433.53a4.381 4.381 0 0 0 3.852 4.851l22.859 2.939a4.382 4.382 0 0 0 4.852-3.852l9.645-78.816a15.481 15.481 0 1 0-30.759-3.536"/><path class="x" d="M62.102 269.868s-17.738 72.653-19.181 90.487-8.247 78.368-8.247 78.368"/><path class="g" d="M39.245 383.108l7.024 1.032a5.594 5.594 0 0 0 6.327-4.706l3.686-25.084a5.593 5.593 0 0 0-4.706-6.326l-7.026-1.032a5.6 5.6 0 0 0-6.327 4.707l-3.686 25.085a5.594 5.594 0 0 0 4.708 6.327"/><path class="v" d="M151.634 436.065a3.233 3.233 0 0 0-3.63-2.879l-21.366 2.76a3.232 3.232 0 0 0-2.774 3.735l6.687 40.236a3.174 3.174 0 0 0 .194.685c-.495.163.479.221.072.555l-7.55 11.552c-.036-.044-.066-.087-.1-.131-12.809 1.473-15.206 9.315-15.636 11.63a4.239 4.239 0 0 0-.088.6.3.3 0 0 0 0 .043c0 .053-.006.106-.007.157a3.771 3.771 0 0 0 2.816 4.192 4.132 4.132 0 0 0 1.335.239c.205.014.329.011.329.011l.35-.046 42.12-7.326a3.822 3.822 0 0 0 3.038-1.917 4.256 4.256 0 0 0 .653-2.867l-.048-.366-.344-2.663-1.47-12.733a4.283 4.283 0 0 0-.192-.828 3.217 3.217 0 0 0 .054-.995z"/><path class="w" d="M128.861 440.025l5.215 40.378-8.478 12.123s-7.018 1.453-3.888 2.031 8.592-1.109 8.592-1.109 8.462-9.719 8.808-13.8-4.665-40.34-4.665-40.34z"/><path class="d" d="M89.856 289.038l18.27 70.288c2.931 12.95 9.886 10.145 18.935 8.785l1.041-.156c9.049-1.359 10.67-10.841 10.776-18.246l-7.856-69.725c-1.359-9.049-8.868-13.221-17.917-11.863l-1.042.158c-9.047 1.359-23.445 7.689-22.086 16.738"/><path class="d" d="M108.352 362.023l12.1 78.175a4.38 4.38 0 0 0 5.065 3.567l22.76-3.632a4.382 4.382 0 0 0 3.569-5.065l-12.99-78.334a15.482 15.482 0 1 0-30.508 5.289"/><path class="x" d="M110.436 272.544s3.485 74.706 7.134 92.222 14.2 77.509 14.2 77.509"/><path class="g" d="M120.154 384.331l7.1-.047a5.594 5.594 0 0 0 5.539-5.613l-.167-25.353a5.593 5.593 0 0 0-5.613-5.54l-7.1.047a5.6 5.6 0 0 0-5.539 5.614l.167 25.353a5.594 5.594 0 0 0 5.614 5.539"/><path class="d" d="M127.069 250.437l5.947 46.8-88.114-2.66 3.113-45.167z"/><path class="i" d="M95.088 290.195s-24.715-5.958-30.751-7.613c5.886 12.761 2.267 72.261 2.267 72.261l16.619-59.108 8.44.254 4.076 15.677c-.161-.613-.651-21.471-.651-21.471z"/><path class="j" d="M46.731 243.186h80.749v10.129H46.731z"/><path stroke="#254270" stroke-width="3.963" stroke-linejoin="round" stroke-linecap="round" fill="none" d="M73.524 242.352h12.479v10.963H73.524z"/><path d="M50.401 262.65h11.616a1.951 1.951 0 0 0 1.95-1.95v-22.165a1.95 1.95 0 0 0-1.95-1.949H50.401a1.95 1.95 0 0 0-1.951 1.949v22.164a1.951 1.951 0 0 0 1.951 1.95m65.209.001h11.617a1.951 1.951 0 0 0 1.949-1.95v-22.165a1.95 1.95 0 0 0-1.949-1.949H115.61a1.95 1.95 0 0 0-1.951 1.949v22.164a1.951 1.951 0 0 0 1.951 1.95m-18.62.001h11.617a1.95 1.95 0 0 0 1.949-1.95v-22.165a1.949 1.949 0 0 0-1.949-1.949H96.99a1.949 1.949 0 0 0-1.95 1.949v22.164a1.95 1.95 0 0 0 1.95 1.95" fill="#0e1d35"/><path class="g" d="M98.719 262.65h11.617a1.951 1.951 0 0 0 1.95-1.95v-22.165a1.95 1.95 0 0 0-1.95-1.949H98.719a1.95 1.95 0 0 0-1.95 1.949v22.164a1.951 1.951 0 0 0 1.95 1.95m19.17.001h11.618a1.95 1.95 0 0 0 1.949-1.95v-22.165a1.949 1.949 0 0 0-1.949-1.949h-11.618a1.949 1.949 0 0 0-1.949 1.949v22.164a1.95 1.95 0 0 0 1.949 1.95m-71.038.001h11.618a1.95 1.95 0 0 0 1.949-1.95v-22.165a1.949 1.949 0 0 0-1.949-1.949H46.851a1.949 1.949 0 0 0-1.949 1.949v22.164a1.95 1.95 0 0 0 1.949 1.95"/><rect class="aa" width="3.459" height="11.799" rx="1.729" transform="translate(122.587 242.703)"/><rect class="aa" width="3.459" height="11.799" rx="1.729" transform="translate(102.799 242.703)"/><rect class="aa" width="3.459" height="11.799" rx="1.729" transform="translate(50.931 242.703)"/></g></g><path d="M375.208 275.976l37.447-77.14-44.952 14.72zm-104.44-196.89l94.919 20.128 36.706-57.588z" stroke-width="2" opacity=".6" stroke-linejoin="round" stroke="#ffa200" fill="none"/></svg>